<svg width="136" height="45" viewBox="0 0 136 45" fill="none" xmlns="http://www.w3.org/2000/svg">
<rect x="0.701389" y="0.701389" width="134.375" height="43.5972" rx="19.4097" stroke="#4E4138" stroke-width="0.597222"/>
<path d="M39.983 9.5838C40.7395 9.5838 41.3699 9.55858 41.8742 9.50815V10.0125C40.9328 10.231 40.2688 10.9623 39.8822 12.2063L35.1163 27.4872H34.9146H34.7129L30.3253 14.5009L26.3159 27.4872H26.1142H25.9125L20.5667 11.6263C20.2137 10.584 19.6337 10.0461 18.8268 10.0125V9.50815C19.516 9.55858 20.4154 9.5838 21.5249 9.5838C22.7353 9.5838 23.643 9.55858 24.2482 9.50815V10.0125C23.7943 10.0461 23.4749 10.1301 23.29 10.2646C23.1051 10.3991 23.0126 10.6093 23.0126 10.895C23.0126 11.164 23.1051 11.5759 23.29 12.1306L26.9716 23.377L30.0479 13.6184L29.3671 11.6263C29.0309 10.584 28.5349 10.0461 27.8793 10.0125V9.50815C28.4845 9.55858 29.2998 9.5838 30.3253 9.5838C31.771 9.5838 32.8469 9.55858 33.5529 9.50815V10.0125C32.9141 10.0461 32.4687 10.1217 32.2165 10.2394C31.9643 10.3403 31.8383 10.5672 31.8383 10.9203C31.8383 11.2228 31.9223 11.6263 32.0904 12.1306L35.7215 23.3518L38.8231 13.5932C39.0921 12.7694 39.2266 12.0886 39.2266 11.5507C39.2266 10.9959 39.0584 10.6093 38.7222 10.3907C38.386 10.1554 37.8397 10.0293 37.0832 10.0125V9.50815C38.0414 9.55858 39.008 9.5838 39.983 9.5838Z" fill="#4E4138"/>
<path d="M32.45 19.805H38.2497C39.7459 19.805 40.9731 20.116 41.9313 20.738C42.8895 21.3432 43.6039 22.1669 44.0746 23.2091C44.5453 24.2346 44.7807 25.3861 44.7807 26.6637C44.7807 28.2439 44.5201 29.7065 43.999 31.0513C43.4779 32.3962 42.755 33.5729 41.8304 34.5816C40.9058 35.5734 39.8131 36.3467 38.5523 36.9015C37.2915 37.4394 35.9215 37.7084 34.4421 37.7084H28.6424L32.45 19.805ZM34.7699 36.145C36.0307 36.145 37.1654 35.8928 38.1741 35.3885C39.1995 34.8842 40.0653 34.2033 40.7713 33.346C41.4774 32.4887 42.0153 31.5136 42.3852 30.4209C42.7718 29.3114 42.9651 28.1515 42.9651 26.9411C42.9651 25.8484 42.7718 24.8902 42.3852 24.0665C42.0153 23.226 41.4522 22.5703 40.6957 22.0996C39.956 21.6121 39.023 21.3684 37.8967 21.3684H33.8621L30.7101 36.145H34.7699Z" fill="#4E4138"/>
<path d="M56.2721 16.7869C56.8327 16.7869 57.2723 16.8506 57.5908 16.978C57.922 17.0927 58.2597 17.2647 58.6037 17.494C58.884 17.6724 59.1006 17.7616 59.2534 17.7616C59.3681 17.7616 59.4573 17.6979 59.521 17.5705C59.5847 17.4303 59.6357 17.2137 59.6739 16.9207H60.1134C60.0497 17.6597 60.0179 18.9592 60.0179 20.8194H59.5783C59.5019 19.7874 59.2025 18.921 58.6801 18.2202C58.1705 17.5068 57.4251 17.15 56.4441 17.15C55.7561 17.15 55.1955 17.3602 54.7623 17.7807C54.3291 18.1884 54.1126 18.7171 54.1126 19.3669C54.1126 19.8511 54.2209 20.2715 54.4374 20.6282C54.6668 20.985 54.9534 21.2908 55.2974 21.5456C55.6414 21.8004 56.132 22.1253 56.769 22.5202L57.3232 22.8642C58.1259 23.3611 58.7566 23.8007 59.2152 24.1829C59.6866 24.5524 60.0625 24.9792 60.3428 25.4634C60.6231 25.9475 60.7632 26.5145 60.7632 27.1642C60.7632 28.3237 60.381 29.2219 59.6166 29.8589C58.8521 30.4832 57.8838 30.7954 56.7117 30.7954C56.1001 30.7954 55.5969 30.7317 55.2019 30.6042C54.8197 30.4768 54.4502 30.3048 54.0934 30.0882C53.8131 29.9099 53.5966 29.8207 53.4437 29.8207C53.329 29.8207 53.2398 29.8908 53.1761 30.0309C53.1124 30.1583 53.0614 30.3685 53.0232 30.6616H52.5837C52.6346 29.9608 52.6601 28.4319 52.6601 26.0749H53.0997C53.1889 27.3617 53.5074 28.4065 54.0552 29.2091C54.6031 30.0118 55.444 30.4131 56.5779 30.4131C57.2659 30.4131 57.852 30.2029 58.3361 29.7825C58.8203 29.3493 59.0623 28.7122 59.0623 27.8714C59.0623 27.1579 58.8203 26.5527 58.3361 26.0558C57.8647 25.5589 57.113 24.9983 56.081 24.374C55.3293 23.9154 54.7177 23.5077 54.2463 23.1509C53.7877 22.7942 53.4118 22.3674 53.1188 21.8705C52.8257 21.3608 52.6792 20.7684 52.6792 20.0931C52.6792 19.0229 53.0232 18.2075 53.7112 17.6469C54.3992 17.0736 55.2529 16.7869 56.2721 16.7869ZM72.0586 16.9971C71.9694 17.9017 71.9249 18.7171 71.9249 19.4434C71.9249 20.0804 71.944 20.6028 71.9822 21.0105H71.5426C71.4407 20.0294 71.3133 19.3032 71.1604 18.8318C71.0075 18.3477 70.74 17.9973 70.3577 17.7807C69.9755 17.5514 69.3894 17.4367 68.5995 17.4367H67.5675V28.3109C67.5675 28.846 67.6185 29.2346 67.7204 29.4767C67.8223 29.7188 68.0007 29.8844 68.2555 29.9736C68.5103 30.0628 68.9244 30.1201 69.4977 30.1456V30.5278C68.8352 30.4896 67.8988 30.4705 66.6884 30.4705C65.4143 30.4705 64.4715 30.4896 63.86 30.5278V30.1456C64.4333 30.1201 64.8474 30.0628 65.1022 29.9736C65.357 29.8844 65.5354 29.7188 65.6373 29.4767C65.7392 29.2346 65.7902 28.846 65.7902 28.3109V17.4367H64.7582C63.9683 17.4367 63.3822 17.5514 63 17.7807C62.6177 17.9973 62.3502 18.3477 62.1973 18.8318C62.0444 19.3032 61.917 20.0294 61.8151 21.0105H61.3755C61.4137 20.6028 61.4329 20.0804 61.4329 19.4434C61.4329 18.7171 61.3883 17.9017 61.2991 16.9971C62.3566 17.0354 64.153 17.0545 66.6884 17.0545C69.2111 17.0545 71.0012 17.0354 72.0586 16.9971ZM84.1769 17.3794C83.7309 17.4048 83.3997 17.4749 83.1831 17.5896C82.9665 17.6915 82.82 17.8699 82.7435 18.1247C82.6671 18.3668 82.6289 18.7299 82.6289 19.214V24.9665C82.6289 25.8838 82.5652 26.6737 82.4378 27.3362C82.3231 27.986 82.1256 28.5466 81.8453 29.018C81.5268 29.5659 81.0554 29.9991 80.4311 30.3176C79.8195 30.6361 79.1252 30.7954 78.348 30.7954C76.9465 30.7954 75.8763 30.4514 75.1373 29.7634C74.5767 29.241 74.2009 28.6485 74.0098 27.986C73.8186 27.3235 73.7231 26.3361 73.7231 25.0238V19.0229C73.7231 18.5388 73.6849 18.1884 73.6084 17.9718C73.532 17.7552 73.3855 17.6087 73.1689 17.5322C72.965 17.4558 72.6338 17.4048 72.1751 17.3794V16.9971C72.7102 17.0354 73.5256 17.0545 74.6213 17.0545C75.6533 17.0545 76.4624 17.0354 77.0484 16.9971V17.3794C76.5898 17.4048 76.2521 17.4558 76.0355 17.5322C75.8317 17.6087 75.6915 17.7552 75.6151 17.9718C75.5386 18.1884 75.5004 18.5388 75.5004 19.0229V25.3487C75.5004 26.3679 75.5705 27.2152 75.7106 27.8905C75.8508 28.5657 76.1375 29.1072 76.5706 29.5149C77.0166 29.9226 77.6664 30.1265 78.52 30.1265C79.8705 30.1265 80.8197 29.6933 81.3675 28.8269C81.9154 27.9605 82.1893 26.7438 82.1893 25.1767V19.214C82.1893 18.526 82.0619 18.0546 81.8071 17.7998C81.565 17.545 81.1127 17.4048 80.4502 17.3794V16.9971C80.9089 17.0354 81.5586 17.0545 82.3995 17.0545C83.164 17.0545 83.7564 17.0354 84.1769 16.9971V17.3794ZM89.7504 16.9971C92.0056 16.9971 93.6937 17.5641 94.8149 18.698C95.9361 19.8192 96.4967 21.4564 96.4967 23.6096C96.4967 24.9983 96.2227 26.2151 95.6749 27.2598C95.127 28.3045 94.3307 29.1136 93.286 29.6869C92.254 30.2475 91.0181 30.5278 89.5784 30.5278L88.47 30.5087C87.7565 30.4832 87.2341 30.4705 86.9029 30.4705C85.8581 30.4705 85.0682 30.4896 84.5331 30.5278V30.1456C84.9918 30.1201 85.323 30.0691 85.5269 29.9927C85.7435 29.9162 85.89 29.7697 85.9664 29.5531C86.0429 29.3365 86.0811 28.9862 86.0811 28.502V19.0229C86.0811 18.5388 86.0429 18.1884 85.9664 17.9718C85.89 17.7552 85.7435 17.6087 85.5269 17.5322C85.323 17.4558 84.9918 17.4048 84.5331 17.3794V16.9971C84.979 17.0354 85.597 17.0545 86.3869 17.0545L88.0113 17.0354C88.8777 17.0099 89.4574 16.9971 89.7504 16.9971ZM89.2727 17.3411C88.8777 17.3411 88.5783 17.3857 88.3744 17.4749C88.1833 17.5641 88.0496 17.7234 87.9731 17.9527C87.8967 18.182 87.8584 18.526 87.8584 18.9847V28.5402C87.8584 28.9989 87.8967 29.3429 87.9731 29.5722C88.0496 29.8016 88.1833 29.9608 88.3744 30.05C88.5783 30.1392 88.8841 30.1838 89.2918 30.1838C90.6423 30.1838 91.7061 29.9417 92.4833 29.4576C93.2605 28.9607 93.802 28.2408 94.1078 27.298C94.4263 26.3552 94.5856 25.1512 94.5856 23.686C94.5856 22.2208 94.4136 21.0296 94.0696 20.1122C93.7256 19.1822 93.165 18.4878 92.3878 18.0291C91.6233 17.5705 90.585 17.3411 89.2727 17.3411ZM102.094 17.3794C101.635 17.4048 101.297 17.4558 101.081 17.5322C100.877 17.6087 100.737 17.7552 100.66 17.9718C100.584 18.1884 100.546 18.5388 100.546 19.0229V28.502C100.546 28.9862 100.584 29.3365 100.66 29.5531C100.737 29.7697 100.877 29.9162 101.081 29.9927C101.297 30.0691 101.635 30.1201 102.094 30.1456V30.5278C101.508 30.4896 100.699 30.4705 99.6666 30.4705C98.5709 30.4705 97.7555 30.4896 97.2204 30.5278V30.1456C97.679 30.1201 98.0103 30.0691 98.2141 29.9927C98.4307 29.9162 98.5772 29.7697 98.6537 29.5531C98.7301 29.3365 98.7684 28.9862 98.7684 28.502V19.0229C98.7684 18.5388 98.7301 18.1884 98.6537 17.9718C98.5772 17.7552 98.4307 17.6087 98.2141 17.5322C98.0103 17.4558 97.679 17.4048 97.2204 17.3794V16.9971C97.7555 17.0354 98.5709 17.0545 99.6666 17.0545C100.686 17.0545 101.495 17.0354 102.094 16.9971V17.3794ZM108.879 16.7296C110.09 16.7296 111.147 17.0035 112.052 17.5514C112.969 18.0992 113.676 18.8955 114.173 19.9402C114.683 20.9722 114.937 22.2081 114.937 23.6478C114.937 25.0493 114.676 26.2915 114.154 27.3745C113.644 28.4574 112.924 29.2983 111.994 29.8971C111.077 30.4959 110.032 30.7954 108.86 30.7954C107.65 30.7954 106.586 30.5214 105.669 29.9736C104.764 29.4257 104.057 28.6358 103.547 27.6038C103.05 26.5591 102.802 25.3168 102.802 23.8771C102.802 22.4757 103.057 21.2334 103.566 20.1505C104.089 19.0675 104.809 18.2266 105.726 17.6278C106.656 17.029 107.707 16.7296 108.879 16.7296ZM108.803 17.0736C107.987 17.0736 107.267 17.3602 106.643 17.9336C106.032 18.4942 105.554 19.2841 105.21 20.3034C104.879 21.3226 104.713 22.4884 104.713 23.8007C104.713 25.1257 104.898 26.2915 105.267 27.298C105.649 28.3045 106.159 29.0817 106.796 29.6296C107.433 30.1774 108.147 30.4514 108.937 30.4514C109.752 30.4514 110.465 30.1711 111.077 29.6105C111.701 29.0371 112.179 28.2408 112.51 27.2216C112.854 26.2023 113.026 25.0365 113.026 23.7242C113.026 22.3992 112.835 21.2334 112.453 20.2269C112.083 19.2204 111.58 18.4432 110.943 17.8954C110.306 17.3475 109.593 17.0736 108.803 17.0736Z" fill="#4E4138"/>
</svg>
