<svg width="512" height="512" viewBox="0 0 512 512" fill="none" xmlns="http://www.w3.org/2000/svg">
<rect width="512" height="512" fill="#DAD2BF"/>
<path d="M364.386 77.5955C374.824 77.5955 383.522 77.2476 390.48 76.5517V83.5101C377.491 86.5253 368.329 96.6149 362.995 113.779L297.238 324.616H294.455H291.672L231.134 145.439L175.815 324.616H173.032H170.249L96.4905 105.777C91.6197 91.3962 83.6176 83.9739 72.4842 83.5101V76.5517C81.994 77.2476 94.403 77.5955 109.711 77.5955C126.411 77.5955 138.936 77.2476 147.286 76.5517V83.5101C141.024 83.9739 136.617 85.1337 134.065 86.9892C131.514 88.8448 130.238 91.7441 130.238 95.6871C130.238 99.3982 131.514 105.081 134.065 112.735L184.861 267.906L227.307 133.262L217.913 105.777C213.274 91.3962 206.432 83.9739 197.386 83.5101V76.5517C205.736 77.2476 216.986 77.5955 231.134 77.5955C251.081 77.5955 265.926 77.2476 275.667 76.5517V83.5101C266.854 83.9739 260.707 85.0177 257.228 86.6413C253.749 88.033 252.009 91.1642 252.009 96.0351C252.009 100.21 253.169 105.777 255.488 112.735L305.588 267.558L348.382 132.914C352.093 121.549 353.949 112.155 353.949 104.733C353.949 97.0788 351.629 91.7441 346.99 88.7288C342.351 85.4816 334.813 83.742 324.376 83.5101V76.5517C337.597 77.2476 350.933 77.5955 364.386 77.5955Z" fill="#4E4138"/>
<path d="M257.945 210.419H337.965C358.608 210.419 375.54 214.71 388.761 223.292C401.982 231.642 411.84 243.008 418.334 257.388C424.828 271.537 428.076 287.425 428.076 305.053C428.076 326.855 424.481 347.035 417.29 365.59C410.1 384.146 400.126 400.382 387.369 414.298C374.612 427.983 359.536 438.653 342.14 446.307C324.744 453.729 305.841 457.44 285.43 457.44H205.409L257.945 210.419ZM289.953 435.869C307.349 435.869 323.005 432.39 336.922 425.432C351.07 418.473 363.015 409.08 372.757 397.251C382.499 385.421 389.921 371.969 395.024 356.892C400.358 341.584 403.026 325.58 403.026 308.88C403.026 293.803 400.358 280.583 395.024 269.217C389.921 257.62 382.151 248.574 371.713 242.08C361.508 235.353 348.635 231.99 333.094 231.99H277.428L233.938 435.869H289.953Z" fill="#4E4138"/>
</svg>
